PathFileType        4      (X/Y/Z)      C:\Users\pc\Desktop\IMUTRC\Sujet_07\Sujet_07_velo_60.trc         
DataRate	CameraRate	NumFrames	NumMarkers	Units	OrigDataRate	OrigDataStartFrame	OrigNumFrames
60.0	60.0	4	64	mm	60.0	702	935
Frame#	Time	pHipOrigin			pRightASI			pLeftASI			pRightCSI			pLeftCSI			pRightIschialTub			pLeftIschialTub			pSacrum			pL5SpinalProcess			pL3SpinalProcess			pT12SpinalProcess			pIJ			pT4SpinalProcess			pT8SpinalProcess			pPX			pC7SpinalProcess			pTopOfHead			pRightAuricularis			pLeftAuricularis			pBackOfHead			pRightAcromion			pLeftAcromion			pRightArmLatEpicondyle			pRightArmMedEpicondyle			pLeftArmLatEpicondyle			pLeftArmMedEpicondyle			pRightUlnarStyloid			pRightRadialStyloid			pRightOlecranon			pLeftUlnarStyloid			pLeftRadialStyloid			pLeftOlecranon			pRightTopOfHand			pRightPinky			pRightBallHand			pLeftTopOfHand			pLeftPinky			pLeftBallHand			pRightGreaterTrochanter			pRightKneeLatEpicondyle			pRightKneeMedEpicondyle			pRightPatella			pLeftGreaterTrochanter			pLeftKneeLatEpicondyle			pLeftKneeMedEpicondyle			pLeftPatella			pRightTibialTub			pRightLatMalleolus			pRightMedMalleolus			pLeftTibialTub			pLeftLatMalleolus			pLeftMedMalleolus			pRightHeelFoot			pRightFirstMetatarsal			pRightFifthMetatarsal			pRightPivotFoot			pRightHeelCenter			pRightToe			pLeftHeelFoot			pLeftFirstMetatarsal			pLeftFifthMetatarsal			pLeftPivotFoot			pLeftHeelCenter			pLeftToe			
		X1	Y1	Z1	X2	Y2	Z2	X3	Y3	Z3	X4	Y4	Z4	X5	Y5	Z5	X6	Y6	Z6	X7	Y7	Z7	X8	Y8	Z8	X9	Y9	Z9	X10	Y10	Z10	X11	Y11	Z11	X12	Y12	Z12	X13	Y13	Z13	X14	Y14	Z14	X15	Y15	Z15	X16	Y16	Z16	X17	Y17	Z17	X18	Y18	Z18	X19	Y19	Z19	X20	Y20	Z20	X21	Y21	Z21	X22	Y22	Z22	X23	Y23	Z23	X24	Y24	Z24	X25	Y25	Z25	X26	Y26	Z26	X27	Y27	Z27	X28	Y28	Z28	X29	Y29	Z29	X30	Y30	Z30	X31	Y31	Z31	X32	Y32	Z32	X33	Y33	Z33	X34	Y34	Z34	X35	Y35	Z35	X36	Y36	Z36	X37	Y37	Z37	X38	Y38	Z38	X39	Y39	Z39	X40	Y40	Z40	X41	Y41	Z41	X42	Y42	Z42	X43	Y43	Z43	X44	Y44	Z44	X45	Y45	Z45	X46	Y46	Z46	X47	Y47	Z47	X48	Y48	Z48	X49	Y49	Z49	X50	Y50	Z50	X51	Y51	Z51	X52	Y52	Z52	X53	Y53	Z53	X54	Y54	Z54	X55	Y55	Z55	X56	Y56	Z56	X57	Y57	Z57	X58	Y58	Z58	X59	Y59	Z59	X60	Y60	Z60	X61	Y61	Z61	X62	Y62	Z62	X63	Y63	Z63	X64	Y64	Z64	
702	11.683	0.0	1249.97763	7.653905517926474E-14	120.72325480393378	1330.47284	122.08994902450321	75.71682715818571	1321.48767	-158.47217162588865	94.84673022981602	1411.11656	98.14688431017981	57.79766481324188	1403.6908	-132.63331201537085	-64.1257830671623	1214.18549	70.6729943474652	-82.65031144532236	1210.47261	-44.71710131531012	-58.77205031318766	1293.56683	8.08311720743547	12.604220755921299	1381.78482	-7.128150739069813	94.91657339501143	1471.63647	-27.1723476005001	173.4910218188385	1550.42375	-47.57398444726894	438.9893843439295	1529.78015	-91.58825766706742	343.90763311687806	1655.64673	-89.37739366918991	261.22931576616173	1616.1417	-69.8874673334457	328.3613360141337	1471.11667	-64.82665721767584	398.16543531234925	1679.92895	-99.29510377876805	669.4001015172428	1676.5131	-149.086526419629	583.6446119164993	1651.56256	-61.14784140319681	556.1902365127748	1668.86457	-202.35818831387667	562.2308834394208	1716.01813	-123.4147957014123	428.4994329523247	1616.81002	88.16533111211992	358.6004189876839	1599.43375	-275.9649653021557	460.9938231705957	1330.84413	57.27947629310545	424.04608735565046	1330.32432	4.393431949222897	388.22250887680116	1309.60646	-267.8658900164792	355.5273404391979	1303.5916	-212.5728171205281	537.4702555914148	1084.90306	21.94730975863889	586.3783306694801	1107.32885	15.800558823036607	417.8709488941187	1323.41837	36.3267455083685	446.06543626610744	1054.97726	-263.7951391132751	494.1085511237118	1073.76443	-280.4734750005132	347.84777262889656	1301.58664	-233.72693549291563	729.5534472953689	1056.75944	118.01266244739777	651.0031000555352	1030.99207	70.94669481896739	596.1319635112944	1067.30402	26.233551182641897	574.2372737689936	995.0514	-426.53773376773626	523.5739098421044	983.98703	-346.80603336401174	496.117599825253	1031.21484	-289.00276942646275	44.60121261334984	1227.99739	170.91723367449634	374.3936651974647	935.49684	117.7207298460593	372.22435722433374	938.5414	31.923461472786414	402.5855993980663	975.15038	72.60374744697869	-15.288370871272022	1230.37364	-178.17362488600077	258.57182539395006	890.79378	-261.17601898815013	283.2052306565836	881.95713	-179.38664846646577	305.6576753997226	919.4572	-224.2160235157154	426.6042990422869	901.93242	73.1804393314521	327.17395453557475	504.72869	135.64616783115451	325.14406757522596	500.34749	70.25101518010015	292.8124086043934	830.71941	-229.1456287894278	-16.586066363255313	557.30304	-197.01509036113268	2.081556341050515	551.28818	-134.44720134151666	275.21232638546	425.94141	105.64610783115455	440.393072400013	403.36711	75.13922330181848	437.10216251936544	408.26811	154.35422641823035	461.17085118939383	402.92156	114.7452547701839	315.8971830672093	425.64438	107.35622895970664	552.4826958491611	389.70371	119.36108048662985	-91.23167092052165	521.80793	-146.7351707062524	34.496510953758246	408.19385	-141.28450965576562	15.939935926247145	411.01564	-218.45071889365258	41.37000391622954	394.23343	-183.18980869223304	-59.48166155001338	497.67422	-155.24256007676067	105.44417608996208	330.00063	-200.90203035005382	
703	11.7	0.0	1249.97763	7.653905517926474E-14	121.25033428313483	1330.39858	121.62256058690004	74.83373558112741	1321.85896	-158.72479214668758	95.16099732278607	1410.96804	97.89959773800868	56.968935329153666	1403.98783	-132.68305044319973	-63.73992544850614	1213.96271	70.8957693474652	-82.83595644532237	1210.47261	-44.395554743138995	-58.7919432202176	1293.49257	8.41461273312156	12.428524709436266	1381.78482	-6.972356259868753	94.65933786932533	1471.78499	-27.320862600500103	173.11510815369735	1550.57227	-47.96250287998496	438.45039672038615	1530.07718	-92.58540371843962	343.4230039260508	1655.8695	-90.17167128784604	260.7347462820735	1616.36447	-70.5159878591318	327.9410178697915	1471.33944	-65.583804836332	397.5893176888059	1680.22598	-100.22793878365523	668.7152633680134	1676.58736	-150.4251119502022	583.0883958602401	1651.78533	-62.41216693377005	555.4954457497764	1669.01309	-203.53103541173385	561.6746673831615	1716.16664	-124.67912123198549	428.29194085446755	1617.18131	87.18807796777767	357.61855083845444	1599.21097	-276.78907978135675	460.4422271192235	1331.0669	57.04674867933644	423.39304525779323	1330.39858	4.187894042192962	387.5966528254289	1309.60646	-267.96999553727807	355.03009282054177	1303.74011	-212.60265898107295	536.5944521538117	1084.97732	22.12762581001108	585.5396485716229	1107.32885	15.916558827923733	417.21790679626156	1323.64114	36.12120760133856	445.43691074042135	1054.97726	-263.30056096893287	493.44290059802574	1073.69017	-279.91459446993986	347.2219165775243	1301.73516	-233.83104101371453	728.6405051975116	1056.8337	118.25728454525502	650.191599004163	1031.06633	71.16413587033958	595.3204624599223	1067.30402	26.450992234014088	573.3515177176215	995.12566	-426.19167928364806	522.8167622234482	984.06128	-346.38571521966946	495.4247632530819	1031.21484	-288.5453212821206	44.195462087663735	1227.40333	171.02595420018244	362.74094076662794	922.27899	120.08202060686776	360.5716327934969	924.65523	34.28475223359487	392.3530036372578	960.52164	74.58452319801285	-15.085493778301952	1231.33898	-178.22797831871677	269.64576772692965	901.48687	-263.87146974895853	294.4449250825332	892.72448	-182.0721502737593	315.744420634845	931.33841	-226.53823874595065	416.15887723499344	889.23437	75.38132060817235	325.5237713863454	489.6544	135.97960888741386	323.5953118122276	485.49598	70.5572788501285	302.4118638346286	841.26398	-231.66343297317798	-13.119951632080486	575.19912	-197.67203718039042	5.6491071187103685	568.96148	-135.1313205470054	271.9146245613151	412.1295	105.71431493878606	436.2646819009526	385.91658	73.52740539967567	433.7653801646473	390.22352	152.8564629904015	457.31959778330344	384.6542	112.95046134235504	312.6193828103484	410.86712	107.09294554165206	548.3868203452137	369.20863	116.65334496094377	-88.26279514774896	540.89212	-147.42195438605503	35.768115963532544	425.49586	-141.40779413985382	17.350111982506476	428.31765	-218.66549547071085	42.47586549328781	411.23841	-183.3230371298362	-56.85423391669579	516.31287	-155.78349823087723	105.59997556916315	345.96601	-200.72634296382282	
704	11.717	0.0	1249.97763	7.653905517926474E-14	121.7402887623359	1330.25006	121.21947453552785	74.1806984832702	1322.08173	-158.93033871397154	95.50243680198713	1410.89378	97.7537472123226	56.47169271049751	1404.2106	-132.71290096399866	-63.455517536589056	1213.88846	71.14572039395024	-83.02160144532236	1210.54687	-44.07400817096787	-58.774706127247526	1293.41831	8.681797212322627	12.391394709436266	1381.85907	-6.908045213383722	94.46641339012427	1471.78499	-27.4322476005001	172.89500262801124	1550.72078	-48.17532892647001	438.1414635760439	1530.29995	-93.5354758162968	342.96555944196257	1656.09227	-90.86449419976316	260.4331012771863	1616.51299	-71.03312338481787	327.7136278649043	1471.56222	-66.22955379473412	397.1418271582327	1680.44875	-101.0865224487964	668.2876607444701	1676.66162	-151.6151824807755	582.6508492831817	1652.08236	-63.43649403162725	554.9292857400021	1669.08735	-204.6296175095911	561.2470697596182	1716.38942	-125.86920042281277	428.37880928229646	1617.40408	86.29503743720443	356.79248216842615	1598.91394	-277.43750687432686	459.91780711433637	1331.14116	56.91547077230654	422.7943702529061	1330.39858	4.185229567879073	387.1736738670268	1309.68072	-268.1284544907931	354.6714212483707	1303.81437	-212.724001594842	535.8744345351556	1084.97732	22.48363290786828	584.8196309529669	1107.25459	16.27256592578099	416.65636179137437	1323.7154	36.05423208053963	444.93700364745126	1054.97726	-262.7317364848447	493.03448059802577	1073.61591	-279.20719027911264	346.8360589588682	1301.80942	-234.0538160137145	727.8833662391096	1056.8337	118.67760768959728	649.397326385507	1030.99207	71.64875640091284	594.536142455035	1067.22976	26.769874331871257	572.5671890524803	995.19992	-425.8728021857908	522.0967532650461	983.98703	-346.02970312181225	494.86054877388085	1031.14058	-288.01361313777824	44.12120208766373	1227.25482	171.1545762931525	350.54390342387404	909.58094	122.64352898633237	347.94166387857194	910.91758	36.85354009226057	381.32879973210714	946.04141	76.45124447473307	-14.513999819899837	1232.45285	-178.32675489088794	280.86556058559535	912.69976	-266.22548103056596	305.4989658482288	903.78885	-184.43611050888165	325.8285100559075	943.59091	-228.26177397129868	404.7090348971267	876.7591	77.68824927601072	322.62648613925876	475.17417	137.1364541393876	320.59659417891	471.23852	71.7413101485873	312.1843469767809	852.40262	-233.73837029149604	-8.538017710078378	592.64965	-198.6279595302214	10.268171040712474	586.18924	-136.15155394332143	266.88981877388096	399.20868	106.84327386078817	430.0704087734617	368.76308	72.52350117244833	428.5655886142147	372.4017	151.9122461445181	451.5038941350137	366.53535	111.73639554295666	307.56010783697405	396.83244	107.687526844998	542.1435227336347	348.56502	114.24921363097212	-84.03953779791796	559.08523	-148.499210689401	38.727047782790294	442.42659	-141.92883438694045	20.576223280965294	445.24837	-219.2037641505135	45.461969698776535	428.02062	-183.74264133043778	-52.83384499958082	534.20894	-156.80639610150715	107.90319581624976	362.0799	-200.8542374527982	
705	11.733	0.0	1249.97763	7.653905517926474E-14	122.19311824153698	1330.10155	120.88069087038666	73.69340847838305	1322.15599	-159.1259276674865	95.88100628118819	1410.81953	97.54358564015146	56.01158875209539	1404.28486	-132.80705753128265	-63.19827335064892	1213.8142	71.29424039395023	-83.17011644532236	1210.54687	-43.81677264528177	-58.69316664804647	1293.49257	8.986106691523679	12.354264709436265	1381.85907	-6.843734166898689	94.43923234363925	1471.85925	-27.533688646985137	172.74915210232516	1550.72078	-48.51676840567106	437.9240225246717	1530.52272	-94.34697686766894	342.6738633905904	1656.24079	-91.5473818184193	260.1314476120452	1616.58725	-71.55026391050396	327.5876752462482	1471.63647	-66.90249745987532	396.82294506037545	1680.67153	-101.87084245368358	667.8600717811807	1676.73587	-152.80525667160273	582.3147387526085	1652.30513	-64.48799351571544	554.4917341629439	1669.1616	-205.65393594719427	560.9109592290449	1716.53793	-126.92069990690102	428.4656913703793	1617.70111	85.40199324637715	356.09503059136784	1598.54266	-278.01166530704285	459.4205731559342	1331.0669	56.8856252515076	422.29712763424993	1330.32432	4.155379047080114	387.01787938782576	1309.68072	-268.3041505372781	354.51562176916957	1303.81437	-212.89968898107296	535.1816029629845	1084.8288	22.941072391956492	584.1639330410496	1107.03182	16.66570802363817	416.22343021920324	1323.64114	36.06151155974069	444.50140260096623	1054.82875	-262.12577334050246	492.6903679842567	1073.39314	-278.46266974853944	346.5516510469512	1301.80942	-234.30376706019956	727.1162746669384	1056.75944	119.26366926665555	648.7044984735899	1030.91781	72.10620954525507	593.907621929349	1067.08125	27.264443815959517	571.6814330011081	995.12566	-425.52674770170256	521.441046692875	983.91277	-345.636566023955	494.42495272739586	1030.91781	-287.40765865369	44.21269052037977	1227.47759	171.2931336793835	337.75546189518	897.4027	125.63529946365418	334.3887952520207	897.4027	39.83269714175353	369.49309977558426	931.85821	78.53539814257147	-13.841061154758648	1233.64097	-178.45269884929004	291.99120053723107	924.43246	-268.11937469351716	316.3574263206635	915.22452	-186.31277573911683	335.71699686320096	956.2147	-229.4980155315056	392.38337546140275	864.58086	80.17549765547534	318.2620019288829	461.36227	138.9038825405908	316.06636287556404	457.57513	73.49878093602146	322.06555430487333	863.91254	-235.40754342387405	-2.766026917757074	609.43186	-200.01148084334167	15.837293400317762	602.82293	-137.48071682372566	260.1306172234484	387.17896	108.60003436473572	421.8473880175404	351.90661	72.06319091339748	421.43848048183673	354.87692	151.4844595408341	443.6965678582934	348.63928	111.00162132550365	300.7664407608554	383.54034	108.90992339054345	533.71566935417	327.7729	112.21298388294586	-78.58907991751376	576.38724	-150.0683806627753	43.437595137508424	459.06028	-142.81050173677144	25.59108511488448	461.80781	-220.16697963979956	50.23682809997971	444.5058	-184.58717868026878	-47.4947771191766	551.28818	-158.18263293542634	112.32666212448287	378.11953	-201.38718584422705	
